<svg width="20" height="24" viewBox="0 0 20 24" fill="none" xmlns="http://www.w3.org/2000/svg">
<path d="M19.6835 10.185C19.6535 10.1175 19.6085 10.05 19.556 9.9975C19.541 9.975 19.5185 9.9525 19.496 9.9375C19.451 9.9 19.3985 9.8625 19.346 9.8325C19.241 9.78 19.121 9.75 19.001 9.75H18.986H14.501H10.766H10.391H10.0235H9.98597H9.61097H9.23597H6.25097H1.01597H1.00097C0.873467 9.75 0.753467 9.78 0.648467 9.8325C0.565967 9.885 0.483467 9.945 0.423467 10.02C0.378467 10.0725 0.348467 10.125 0.325967 10.185C0.258467 10.32 0.235967 10.4775 0.265967 10.635L2.28347 21.4125C2.48597 22.4775 3.41597 23.25 4.49597 23.25H15.506C16.586 23.25 17.516 22.4775 17.7185 21.4125L19.736 10.65C19.7435 10.6125 19.751 10.5675 19.751 10.5225V10.4775C19.7435 10.3725 19.721 10.275 19.6835 10.185Z" fill="black"/>
<path d="M15.2284 5.2725C15.1159 5.2575 14.9959 5.25 14.8759 5.25C14.7484 5.25 14.6284 5.2575 14.5009 5.265C14.1559 5.295 13.8184 5.37 13.4959 5.49C13.3909 5.5275 13.2934 5.565 13.1959 5.61C13.1359 5.6325 13.0759 5.6625 13.0234 5.6925C12.9709 5.7225 12.9109 5.7525 12.8584 5.7825C12.7834 5.82 12.7084 5.865 12.6334 5.91C12.5509 5.9625 12.4759 6.015 12.4009 6.075C12.3259 6.135 12.2509 6.195 12.1834 6.255C12.1309 6.3 12.0784 6.3375 12.0409 6.3825C12.0259 6.39 12.0109 6.405 12.0034 6.4125C11.9209 6.495 11.8459 6.57 11.7784 6.6525C11.7259 6.7125 11.6734 6.78 11.6209 6.8475C11.5609 6.9225 11.5084 6.9975 11.4559 7.0725C11.4484 7.08 11.4409 7.0875 11.4409 7.095C11.3884 7.17 11.3434 7.2525 11.2984 7.3275C11.2609 7.395 11.2234 7.4625 11.1859 7.53C11.1409 7.6125 11.1034 7.7025 11.0659 7.7925C11.0584 7.8225 11.0434 7.86 11.0284 7.89C11.0209 7.9125 11.0134 7.9275 11.0059 7.95C10.9984 7.965 10.9909 7.98 10.9909 7.995C10.9759 8.04 10.9609 8.085 10.9459 8.13C10.8859 8.3175 10.8409 8.505 10.8109 8.7075C10.7959 8.805 10.7809 8.9025 10.7734 9H14.5009H18.9859C18.8659 7.6575 18.0934 6.5025 16.9984 5.85C16.4734 5.52 15.8734 5.3175 15.2284 5.2725Z" fill="black"/>
<path d="M15.4827 4.43249L15.5052 4.53749C16.1952 4.62749 16.8477 4.86749 17.4177 5.21999L19.6227 1.91249C19.8552 1.56749 19.7577 1.10249 19.4127 0.877488C19.0677 0.644988 18.6027 0.742488 18.3777 1.08749L16.7502 3.52499L17.4477 1.77749C17.5977 1.39499 17.4102 0.959988 17.0277 0.802488C16.6452 0.652488 16.2102 0.832488 16.0527 1.22249L15.1602 3.45749C15.2127 3.58499 15.2652 3.70499 15.3102 3.83249C15.3852 4.02749 15.4377 4.22249 15.4827 4.43249Z" fill="black"/>
<path d="M9.91793 8.4825C9.93293 8.5875 9.94793 8.6925 9.96293 8.7975C9.96293 8.8125 9.97043 8.835 9.97043 8.85C9.97793 8.9025 9.97793 8.955 9.97793 9H10.0154C10.0529 8.52 10.1579 8.0625 10.3304 7.62C10.3604 7.5375 10.3979 7.455 10.4354 7.3725C10.4954 7.23 10.5704 7.095 10.6454 6.9525C10.6904 6.87 10.7429 6.795 10.7879 6.72C10.8179 6.6675 10.8554 6.615 10.8929 6.5625C10.9604 6.465 11.0354 6.3675 11.1179 6.27C11.1254 6.2625 11.1329 6.2475 11.1404 6.24C11.2004 6.165 11.2679 6.0975 11.3279 6.03C11.4254 5.925 11.5304 5.82 11.6429 5.7225C11.8229 5.565 12.0179 5.415 12.2204 5.2875C12.3029 5.2275 12.3929 5.175 12.4829 5.13C12.5129 5.1075 12.5504 5.0925 12.5879 5.07C12.6854 5.0175 12.7829 4.965 12.8879 4.9275C13.0004 4.875 13.1204 4.83 13.2404 4.785C13.7129 4.6125 14.2154 4.515 14.7404 4.5075C14.7854 4.5 14.8304 4.5 14.8754 4.5C14.9579 4.5 15.0404 4.5 15.1154 4.5075C15.0779 4.32 15.0254 4.14 14.9579 3.96C14.2829 2.0775 12.4904 0.75 10.3754 0.75C8.06543 0.75 6.12293 2.37 5.62793 4.53C6.51293 4.6125 7.34543 4.935 8.04293 5.475C9.02543 6.2025 9.69293 7.2675 9.91793 8.4825Z" fill="black"/>
<path d="M9.23594 9C9.22094 8.8725 9.19844 8.745 9.17594 8.6175C8.98844 7.59 8.42594 6.69 7.60094 6.075C6.99344 5.61 6.28094 5.34 5.51594 5.2725C5.38844 5.2575 5.26094 5.25 5.12594 5.25C2.98094 5.25 1.21094 6.9 1.02344 9H6.25094H9.23594Z" fill="black"/>
</svg>
