<svg width="18" height="24" viewBox="0 0 18 24" fill="none" xmlns="http://www.w3.org/2000/svg">
<path d="M16.2279 10.3689C16.2162 10.1941 16.1462 10.0269 16.026 9.89657C15.8797 9.73827 15.6742 9.64831 15.4588 9.64831H14.9546L15.7436 7.61995C16.0794 6.75622 15.3552 5.66791 15.0862 5.30715L16.4805 1.72276C16.5315 1.5918 16.4665 1.44412 16.3354 1.39307L16.2259 1.35068L16.5636 0.808962C16.6035 0.744615 16.613 0.665577 16.589 0.593681C16.5651 0.521901 16.5104 0.464234 16.4397 0.436823L15.3614 0.0172952C15.2907 -0.0101158 15.2115 -0.00477299 15.1452 0.0321041C15.0788 0.0690973 15.0326 0.133443 15.0185 0.208011L14.9014 0.835501L14.7921 0.792933C14.6609 0.741944 14.5132 0.806813 14.4622 0.938002L13.0681 4.52222C12.6262 4.60631 11.3566 4.91922 11.0206 5.78284L9.59658 9.44458L9.10463 7.82101C9.03599 7.59446 8.79643 7.46629 8.56988 7.53487L8.18683 7.65085L9.05887 6.54105C9.07443 6.52131 9.08808 6.50028 9.09969 6.47839C9.14098 6.40133 9.158 6.31299 9.14732 6.22495C9.13384 6.112 9.07594 6.00915 8.98645 5.93882L7.23279 4.56131C7.04654 4.4149 6.7769 4.44736 6.63062 4.63355L5.25304 6.38716C5.18271 6.47671 5.15083 6.5903 5.16448 6.70325C5.17807 6.81615 5.23591 6.919 5.32534 6.98944L5.9688 7.49486L4.62415 7.00414C4.40161 6.92295 4.15573 7.0373 4.07425 7.25984L3.30965 9.35469C3.27492 9.44999 3.27527 9.55388 3.30976 9.64825H2.54005C2.32477 9.64825 2.11924 9.73827 1.97313 9.89652C1.8528 10.0268 1.78294 10.194 1.77121 10.3689C1.26794 10.4 0.869141 10.8169 0.869141 11.328V12.2831C0.869141 12.8145 1.29993 13.2452 1.83131 13.2452C1.88608 13.2452 1.9395 13.2395 1.99183 13.2308L4.02512 23.2902C4.05723 23.6909 4.39192 24 4.79414 24H13.2049C13.6071 24 13.9417 23.6911 13.9739 23.2902L16.0072 13.2308C16.0595 13.2395 16.1129 13.2452 16.1677 13.2452C16.6991 13.2452 17.1299 12.8145 17.1299 12.2831V11.328C17.1299 10.8169 16.7312 10.4 16.2279 10.3689ZM11.162 8.15383L14.0376 9.27234L13.8913 9.64831H10.5806L11.162 8.15383ZM8.40826 8.48009L8.76217 9.64831H7.32826L7.0948 8.87784L8.40826 8.48009ZM7.04033 5.5006L8.11946 6.34842L7.27164 7.42767L6.1925 6.57985L7.04033 5.5006ZM4.26247 9.24603L4.73299 7.95678L6.02217 8.42742L5.57651 9.64831H5.36483L4.26247 9.24603Z" fill="black"/>
</svg>
