<svg width="24" height="24" viewBox="0 0 24 24" fill="none" xmlns="http://www.w3.org/2000/svg">
<path d="M22.1136 5.06555L17.7359 2.77958C17.5691 2.69239 17.3726 2.68923 17.2027 2.76872C17.0336 2.84863 16.9113 3.00292 16.8731 3.18643L15.7235 8.62845C15.63 8.61442 15.5325 8.60197 15.4367 8.58904L15.9822 0.639472C15.9963 0.439555 15.9089 0.245862 15.7492 0.123486C15.5902 0.00195292 15.3798 -0.0327556 15.1912 0.0323361L11.3605 1.34751C11.0473 1.45507 10.8812 1.79524 10.9888 2.10815C11.0956 2.42111 11.4408 2.58637 11.7487 2.48003L14.7267 1.45781L14.245 8.46714C13.7142 8.42858 13.1609 8.4059 12.588 8.4059C11.1532 8.4059 9.82671 8.53566 8.73872 8.75473L8.19472 7.30472C11.0869 6.17073 13.2193 4.94433 13.0486 4.49001C12.9895 4.33145 6.08035 3.37353 6.08035 3.37353C6.08035 3.37353 1.50774 8.63937 1.56698 8.79761C1.73767 9.25236 4.1506 8.77345 7.07403 7.72518L7.57282 9.05402C6.67129 9.34641 6.25912 9.67313 5.94611 10.1262L5.94621 10.1257C4.89013 11.5582 4.20831 13.5081 4.20831 15.4398C4.20831 20.1675 7.96026 24 12.5881 24C17.216 24 20.9679 20.1675 20.9679 15.4398C20.9679 13.5081 20.2567 11.536 19.2184 10.0907C18.7563 9.44737 18.1655 9.16068 16.8988 8.85563L17.8808 4.20596L21.5587 6.12706C21.8548 6.27982 22.2141 6.16604 22.3668 5.87339C22.5196 5.58021 22.4059 5.21862 22.1136 5.06555ZM6.77784 10.2994C6.93846 10.1606 7.30232 9.97902 7.85423 9.80405L8.26963 10.9107C7.48478 10.7027 6.97507 10.4697 6.77784 10.2994ZM14.0479 11.3442C13.5919 11.3741 13.1134 11.3952 12.5881 11.3952C11.4385 11.3952 10.469 11.3106 9.65222 11.1891L9.02472 9.51689C9.94756 9.3377 11.1252 9.20393 12.5881 9.20393C13.1703 9.20393 13.6933 9.2301 14.1905 9.26639L14.0479 11.3442ZM15.2941 10.6614L15.3814 9.39061C15.4398 9.39884 15.5006 9.40628 15.5575 9.41482L15.2941 10.6614ZM18.3991 10.2994C18.1653 10.5016 17.502 10.7928 16.4405 11.0245L16.7328 9.64116C17.6229 9.86018 18.1871 10.1162 18.3991 10.2994Z" fill="black"/>
</svg>
