<svg width="24" height="24" viewBox="0 0 24 24" fill="none" xmlns="http://www.w3.org/2000/svg">
<path d="M7.44012 15.915C7.96203 15.915 8.38512 15.4919 8.38512 14.97C8.38512 14.4481 7.96203 14.025 7.44012 14.025C6.91821 14.025 6.49512 14.4481 6.49512 14.97C6.49512 15.4919 6.91821 15.915 7.44012 15.915Z" fill="black"/>
<path d="M8.84977 13.29C9.10658 13.29 9.31477 13.0818 9.31477 12.825C9.31477 12.5682 9.10658 12.36 8.84977 12.36C8.59295 12.36 8.38477 12.5682 8.38477 12.825C8.38477 13.0818 8.59295 13.29 8.84977 13.29Z" fill="black"/>
<path fill-rule="evenodd" clip-rule="evenodd" d="M22.7254 13.5V13.365C22.7328 13.2301 22.7328 13.0949 22.7254 12.96V12.465C22.6422 12.3451 22.5671 12.2198 22.5004 12.09V11.685C22.5004 11.55 22.5004 11.43 22.3804 11.31C22.3314 11.2035 22.2913 11.0931 22.2604 10.98V10.905C22.2014 10.7941 22.1513 10.6788 22.1104 10.56C22.0665 10.4571 22.0164 10.3569 21.9604 10.26L21.7804 9.91502V9.78001C21.3597 9.10006 20.8558 8.47523 20.2804 7.92002H16.1554L17.1304 4.26002C17.2046 4.00433 17.3772 3.78854 17.6104 3.66002C17.7304 3.60481 17.8608 3.57623 17.9929 3.57623C18.1249 3.57623 18.2554 3.60481 18.3754 3.66002L21.1804 4.72502L21.8554 2.98502L19.0504 1.50002C18.6813 1.35834 18.2865 1.29586 17.8917 1.31664C17.4968 1.33742 17.1108 1.44099 16.7586 1.62063C16.4064 1.80027 16.0959 2.05196 15.8473 2.35937C15.5986 2.66678 15.4174 3.02304 15.3154 3.40502L14.2204 7.57502H10.9654C10.8552 6.37772 10.2928 5.26747 9.39258 4.4704C8.4924 3.67333 7.32221 3.24942 6.12039 3.28502C4.88255 3.24441 3.67879 3.69455 2.77132 4.53741C1.86385 5.38026 1.32617 6.54754 1.27539 7.78502C1.27432 8.70014 1.55229 9.59384 2.07221 10.3469C2.59213 11.1 3.3293 11.6767 4.18539 12C4.19247 12.1249 4.19247 12.2501 4.18539 12.375V12.84C4.17795 12.9749 4.17795 13.1101 4.18539 13.245V13.92C4.27887 16.2809 5.28794 18.5127 6.99877 20.1423C8.7096 21.7719 10.9877 22.6714 13.3504 22.65C15.7565 22.7269 18.0949 21.8462 19.8524 20.2011C21.61 18.556 22.6432 16.281 22.7254 13.875V13.5ZM13.3504 20.775C11.4414 20.8522 9.5798 20.1692 8.1738 18.8757C6.7678 17.5821 5.93224 15.7838 5.85039 13.875C5.86192 12.2353 6.48201 10.6584 7.59039 9.45002H19.1254C20.2471 10.679 20.8632 12.2862 20.8504 13.95C20.7494 15.8455 19.9055 17.6248 18.5016 18.9023C17.0977 20.1798 15.247 20.8527 13.3504 20.775ZM3.15039 7.84502C3.16953 7.47121 3.26251 7.10489 3.42395 6.7672C3.58539 6.42951 3.81211 6.12713 4.09101 5.87751C4.36992 5.62789 4.69549 5.43597 5.04895 5.31282C5.40241 5.18968 5.77676 5.13774 6.15039 5.16002C6.85959 5.12458 7.55708 5.35103 8.11022 5.7963C8.66335 6.24158 9.03354 6.87461 9.15039 7.57502H6.79539C6.21586 8.12643 5.71151 8.75181 5.29539 9.43501C5.29825 9.47496 5.29825 9.51507 5.29539 9.55501L5.11539 9.90001C5.06919 9.98713 5.02909 10.0773 4.99539 10.17C4.49437 10.0051 4.05264 9.69696 3.72476 9.28378C3.39687 8.87059 3.1972 8.37041 3.15039 7.84502Z" fill="black"/>
</svg>
