<svg width="18" height="18" viewBox="0 0 18 18" fill="none" xmlns="http://www.w3.org/2000/svg">
<g clip-path="url(#clip0_39_253)">
<path d="M16.5852 3.79916L13.3019 2.08469C13.1768 2.01929 13.0295 2.01692 12.9021 2.07654C12.7752 2.13647 12.6835 2.25219 12.6548 2.38983L11.7926 6.47134C11.7225 6.46081 11.6494 6.45148 11.5775 6.44178L11.9867 0.479604C11.9972 0.329666 11.9317 0.184397 11.8119 0.0926141C11.6926 0.00146469 11.5348 -0.0245667 11.3934 0.024252L8.5204 1.01064C8.28544 1.0913 8.16091 1.34643 8.24161 1.58111C8.32168 1.81583 8.58061 1.93978 8.81149 1.86002L11.045 1.09336L10.6838 6.35036C10.2857 6.32144 9.87067 6.30443 9.44103 6.30443C8.36492 6.30443 7.37003 6.40175 6.55404 6.56605L6.14604 5.47854C8.3152 4.62805 9.9145 3.70825 9.78648 3.36751C9.74209 3.24858 4.56026 2.53015 4.56026 2.53015C4.56026 2.53015 1.13081 6.47952 1.17523 6.59821C1.30325 6.93927 3.11295 6.58009 5.30552 5.79389L5.67961 6.79052C5.00347 7.00981 4.69434 7.25485 4.45958 7.59468L4.45966 7.59429C3.6676 8.66862 3.15623 10.1311 3.15623 11.5798C3.15623 15.1256 5.97019 18 9.44107 18C12.912 18 15.726 15.1256 15.726 11.5798C15.726 10.1311 15.1925 8.652 14.4138 7.56802C14.0672 7.08553 13.6241 6.87051 12.6741 6.64173L13.4106 3.15447L16.169 4.59529C16.3911 4.70986 16.6606 4.62453 16.7751 4.40504C16.8897 4.18516 16.8044 3.91397 16.5852 3.79916ZM5.08338 7.72452C5.20385 7.62048 5.47674 7.48427 5.89067 7.35304L6.20222 8.18304C5.61359 8.02705 5.2313 7.85227 5.08338 7.72452ZM10.5359 8.50811C10.1939 8.53059 9.83506 8.54641 9.44107 8.54641C8.57891 8.54641 7.85173 8.48295 7.23916 8.39184L6.76854 7.13767C7.46067 7.00328 8.34392 6.90295 9.44107 6.90295C9.87771 6.90295 10.27 6.92257 10.6429 6.94979L10.5359 8.50811ZM11.4706 7.99607L11.536 7.04296C11.5799 7.04913 11.6255 7.05471 11.6681 7.06112L11.4706 7.99607ZM13.7993 7.72452C13.624 7.8762 13.1265 8.09458 12.3304 8.26841L12.5496 7.23087C13.2172 7.39513 13.6404 7.58716 13.7993 7.72452Z" fill="#CFBDA8"/>
</g>
<defs>
<clipPath id="clip0_39_253">
<rect width="18" height="18" fill="white"/>
</clipPath>
</defs>
</svg>
