<svg width="18" height="18" viewBox="0 0 18 18" fill="none" xmlns="http://www.w3.org/2000/svg">
<path d="M5.57984 11.9363C5.97128 11.9363 6.28859 11.6189 6.28859 11.2275C6.28859 10.8361 5.97128 10.5188 5.57984 10.5188C5.18841 10.5188 4.87109 10.8361 4.87109 11.2275C4.87109 11.6189 5.18841 11.9363 5.57984 11.9363Z" fill="#CFBDA8"/>
<path d="M6.63684 9.96749C6.82945 9.96749 6.98559 9.81135 6.98559 9.61874C6.98559 9.42613 6.82945 9.26999 6.63684 9.26999C6.44423 9.26999 6.28809 9.42613 6.28809 9.61874C6.28809 9.81135 6.44423 9.96749 6.63684 9.96749Z" fill="#CFBDA8"/>
<path fill-rule="evenodd" clip-rule="evenodd" d="M17.0436 10.125V10.0237C17.0491 9.92257 17.0491 9.82117 17.0436 9.72V9.34875C16.9812 9.25881 16.9248 9.16486 16.8748 9.0675V8.76375C16.8748 8.6625 16.8748 8.5725 16.7848 8.4825C16.7481 8.40259 16.718 8.31982 16.6948 8.235V8.17875C16.6506 8.09557 16.613 8.00906 16.5823 7.92C16.5494 7.84281 16.5118 7.76767 16.4698 7.695L16.3348 7.43625V7.335C16.0193 6.82503 15.6414 6.35641 15.2098 5.94H12.1161L12.8473 3.195C12.903 3.00323 13.0324 2.84139 13.2073 2.745C13.2973 2.7036 13.3951 2.68216 13.4942 2.68216C13.5932 2.68216 13.6911 2.7036 13.7811 2.745L15.8848 3.54375L16.3911 2.23875L14.2873 1.125C14.0105 1.01874 13.7144 0.971882 13.4183 0.987466C13.1221 1.00305 12.8326 1.08073 12.5685 1.21546C12.3043 1.35019 12.0714 1.53896 11.885 1.76951C11.6985 2.00007 11.5626 2.26726 11.4861 2.55375L10.6648 5.68125H8.22356C8.14093 4.78328 7.71909 3.95058 7.04395 3.35278C6.36881 2.75499 5.49117 2.43705 4.58981 2.46375C3.66142 2.43329 2.75861 2.7709 2.078 3.40304C1.3974 4.03518 0.994137 4.91064 0.956057 5.83875C0.955255 6.52509 1.16373 7.19536 1.55367 7.76018C1.94361 8.32499 2.49648 8.75749 3.13856 9C3.14386 9.09367 3.14386 9.18757 3.13856 9.28125V9.63C3.13297 9.73117 3.13297 9.83257 3.13856 9.93375V10.44C3.20867 12.2107 3.96547 13.8845 5.24859 15.1067C6.53171 16.3289 8.24031 17.0035 10.0123 16.9875C11.8169 17.0452 13.5707 16.3846 14.8888 15.1508C16.207 13.917 16.9819 12.2107 17.0436 10.4062V10.125ZM10.0123 15.5812C8.5806 15.6392 7.18437 15.1269 6.12987 14.1567C5.07537 13.1866 4.44869 11.8378 4.38731 10.4062C4.39595 9.17649 4.86102 7.99377 5.69231 7.0875H14.3436C15.1848 8.0092 15.6469 9.21464 15.6373 10.4625C15.5615 11.8841 14.9286 13.2186 13.8757 14.1767C12.8228 15.1349 11.4347 15.6395 10.0123 15.5812ZM2.36231 5.88375C2.37666 5.60339 2.44639 5.32865 2.56747 5.07538C2.68856 4.82212 2.85859 4.59533 3.06777 4.40812C3.27695 4.2209 3.52113 4.07696 3.78623 3.9846C4.05132 3.89224 4.33208 3.85329 4.61231 3.87C5.14421 3.84342 5.66733 4.01326 6.08218 4.34721C6.49703 4.68117 6.77467 5.15594 6.86231 5.68125H5.09606C4.6614 6.09481 4.28315 6.56384 3.97106 7.07625C3.9732 7.10621 3.9732 7.13628 3.97106 7.16625L3.83606 7.425C3.80141 7.49033 3.77133 7.55799 3.74606 7.6275C3.37029 7.50378 3.03899 7.27271 2.79308 6.96282C2.54717 6.65293 2.39741 6.27779 2.36231 5.88375Z" fill="#CFBDA8"/>
</svg>
