<svg width="18" height="18" viewBox="0 0 18 18" fill="none" xmlns="http://www.w3.org/2000/svg">
<path d="M4.5 3.84081C4.1925 3.84081 3.9375 3.58581 3.9375 3.27831V1.96581C3.9375 1.65831 4.1925 1.40331 4.5 1.40331C4.8075 1.40331 5.0625 1.65831 5.0625 1.96581V3.27831C5.0625 3.59331 4.8075 3.84081 4.5 3.84081Z" fill="#B3D300"/>
<path d="M7.5 3.84081C7.1925 3.84081 6.9375 3.58581 6.9375 3.27831V1.96581C6.9375 1.65831 7.1925 1.40331 7.5 1.40331C7.8075 1.40331 8.0625 1.65831 8.0625 1.96581V3.27831C8.0625 3.59331 7.8075 3.84081 7.5 3.84081Z" fill="#B3D300"/>
<path d="M10.5 3.84081C10.1925 3.84081 9.9375 3.58581 9.9375 3.27831V1.96581C9.9375 1.65831 10.1925 1.40331 10.5 1.40331C10.8075 1.40331 11.0625 1.65831 11.0625 1.96581V3.27831C11.0625 3.59331 10.8075 3.84081 10.5 3.84081Z" fill="#B3D300"/>
<path d="M16.6875 9.93877C16.6875 7.97377 15.165 6.38379 13.245 6.21879C12.69 5.31129 11.7 4.69629 10.56 4.69629H5.0325C3.2925 4.69629 1.875 6.11379 1.875 7.85377V8.25127H13.7175V7.85377C13.7175 7.71127 13.695 7.56877 13.6725 7.43379C14.76 7.75627 15.5625 8.74627 15.5625 9.93877C15.5625 11.1163 14.7825 12.0988 13.7175 12.4288V9.00127H1.875V13.3438C1.875 15.0838 3.2925 16.5013 5.0325 16.5013H10.56C12.21 16.5013 13.5525 15.2263 13.6875 13.6063C15.3975 13.2613 16.6875 11.7463 16.6875 9.93877Z" fill="#B3D300"/>
</svg>
