<svg width="18" height="18" viewBox="0 0 18 18" fill="none" xmlns="http://www.w3.org/2000/svg">
<g clip-path="url(#clip0_39_263)">
<path d="M14.4214 7.77673C14.4126 7.64558 14.3602 7.52018 14.27 7.42245C14.1603 7.30371 14.0061 7.23625 13.8446 7.23625H13.4664L14.0582 5.71498C14.3101 5.06718 13.7669 4.25095 13.5651 3.98038L14.6108 1.29208C14.6491 1.19387 14.6004 1.0831 14.502 1.04482L14.4199 1.01302L14.6732 0.606736C14.7031 0.558477 14.7103 0.499198 14.6922 0.445276C14.6743 0.391441 14.6333 0.34819 14.5802 0.327632L13.7716 0.0129866C13.7185 -0.00757159 13.6591 -0.00356448 13.6094 0.0240933C13.5596 0.0518382 13.5249 0.100098 13.5144 0.156023L13.4265 0.626641L13.3445 0.594715C13.2462 0.556473 13.1354 0.605125 13.0971 0.703517L12.0516 3.39168C11.7201 3.45475 10.7679 3.68943 10.5159 4.33714L9.44792 7.08345L9.07896 5.86577C9.02748 5.69586 8.84781 5.59973 8.6779 5.65117L8.39061 5.73815L9.04464 4.9058C9.05631 4.89099 9.06655 4.87523 9.07526 4.85881C9.10623 4.80101 9.11899 4.73476 9.11097 4.66873C9.10087 4.58401 9.05745 4.50688 8.99033 4.45413L7.67508 3.42099C7.5354 3.31119 7.33317 3.33554 7.22345 3.47518L6.19027 4.79038C6.13752 4.85754 6.11361 4.94274 6.12385 5.02745C6.13404 5.11213 6.17742 5.18926 6.24449 5.2421L6.72709 5.62116L5.7186 5.25312C5.5517 5.19222 5.36728 5.27799 5.30618 5.44489L4.73272 7.01603C4.70668 7.0875 4.70694 7.16542 4.73281 7.2362H4.15552C3.99406 7.2362 3.83992 7.30371 3.73034 7.4224C3.64009 7.52014 3.58769 7.64554 3.57889 7.77668C3.20144 7.79999 2.90234 8.11267 2.90234 8.496V9.21232C2.90234 9.61085 3.22544 9.93395 3.62397 9.93395C3.66505 9.93395 3.70512 9.92964 3.74436 9.9231L5.26933 17.4676C5.29341 17.7682 5.54443 18 5.84609 18H12.1542C12.4558 18 12.7068 17.7683 12.7309 17.4676L14.2559 9.9231C14.2951 9.92964 14.3352 9.93395 14.3763 9.93395C14.7748 9.93395 15.0979 9.61085 15.0979 9.21232V8.496C15.098 8.11271 14.7989 7.80003 14.4214 7.77673ZM10.622 6.11539L12.7787 6.95427L12.669 7.23625H10.186L10.622 6.11539ZM8.55669 6.36008L8.82211 7.23625H7.74668L7.57159 6.65839L8.55669 6.36008ZM7.53073 4.12546L8.34008 4.76133L7.70422 5.57077L6.89487 4.9349L7.53073 4.12546ZM5.44734 6.93454L5.80023 5.9676L6.76712 6.32058L6.43287 7.23625H6.27411L5.44734 6.93454Z" fill="#CFBDA8"/>
</g>
<defs>
<clipPath id="clip0_39_263">
<rect width="18" height="18" fill="white"/>
</clipPath>
</defs>
</svg>
