<svg width="15" height="16" viewBox="0 0 15 16" fill="none" xmlns="http://www.w3.org/2000/svg">
<path d="M14.4876 11.9079C14.7553 11.3416 14.9322 10.7268 15 10.0821L10.5876 10.9778V9.25601L14.4875 8.46504C14.7551 7.89872 14.9321 7.28388 14.9999 6.63924L10.5874 7.53412V1.34216C9.91131 1.70447 9.31085 2.18674 8.82274 2.75561V7.89223L7.05806 8.25021V0.5C6.38195 0.862181 5.78149 1.34458 5.29338 1.91345V8.60806L1.34489 9.40883C1.07722 9.97515 0.900155 10.59 0.832236 11.2346L5.29338 10.3298V12.4981L0.512392 13.4677C0.24472 14.034 0.0677852 14.6489 0 15.2935L5.00436 14.2785C5.41174 14.1977 5.76187 13.9678 5.98951 13.6515L6.90728 12.3529V12.3526C7.00255 12.2183 7.05806 12.0563 7.05806 11.8818V9.97184L8.82274 9.61386V13.0574L14.4875 11.9077L14.4876 11.9079Z" fill="#B3D300"/>
</svg>
