<svg width="189" height="29" viewBox="0 0 189 29" fill="none" xmlns="http://www.w3.org/2000/svg">
<path d="M7.968 9.176C9.376 9.176 10.632 9.472 11.736 10.064C12.84 10.64 13.696 11.456 14.304 12.512C14.928 13.552 15.24 14.744 15.24 16.088C15.24 17.432 14.928 18.632 14.304 19.688C13.68 20.728 12.808 21.544 11.688 22.136C10.568 22.712 9.288 23 7.848 23H2.112V9.176H7.968ZM8.04 20.36C8.824 20.36 9.52 20.184 10.128 19.832C10.752 19.464 11.232 18.96 11.568 18.32C11.92 17.68 12.096 16.944 12.096 16.112C12.096 15.28 11.912 14.544 11.544 13.904C11.192 13.248 10.696 12.736 10.056 12.368C9.416 12 8.704 11.816 7.92 11.816H5.208V20.36H8.04ZM31.7563 20.336H25.3483L24.2443 23H21.0523L27.0523 9.176H30.2443L36.1483 23H32.8363L31.7563 20.336ZM30.7243 17.816L28.5643 12.464L26.3803 17.816H30.7243ZM46.5649 9.176V23H43.4689V9.176H46.5649ZM59.1574 9.176V20.24H65.0854V23H56.0614V9.176H59.1574ZM78.4725 18.44V23H75.3765V18.536L70.2405 9.176H73.3605L76.9125 15.368L80.3925 9.176H83.5125L78.4725 18.44ZM108.32 9.176C109.728 9.176 110.984 9.472 112.088 10.064C113.192 10.64 114.048 11.456 114.656 12.512C115.28 13.552 115.592 14.744 115.592 16.088C115.592 17.432 115.28 18.632 114.656 19.688C114.032 20.728 113.16 21.544 112.04 22.136C110.92 22.712 109.64 23 108.2 23H102.464V9.176H108.32ZM108.392 20.36C109.176 20.36 109.872 20.184 110.48 19.832C111.104 19.464 111.584 18.96 111.92 18.32C112.272 17.68 112.448 16.944 112.448 16.112C112.448 15.28 112.264 14.544 111.896 13.904C111.544 13.248 111.048 12.736 110.408 12.368C109.768 12 109.056 11.816 108.272 11.816H105.56V20.36H108.392ZM130.132 8.984C131.524 8.984 132.78 9.296 133.9 9.92C135.036 10.528 135.924 11.376 136.564 12.464C137.22 13.536 137.548 14.736 137.548 16.064C137.548 17.408 137.22 18.632 136.564 19.736C135.924 20.824 135.036 21.68 133.9 22.304C132.78 22.928 131.524 23.24 130.132 23.24C128.74 23.24 127.476 22.928 126.34 22.304C125.22 21.68 124.332 20.824 123.676 19.736C123.036 18.632 122.716 17.408 122.716 16.064C122.716 14.736 123.036 13.536 123.676 12.464C124.332 11.376 125.22 10.528 126.34 9.92C127.476 9.296 128.74 8.984 130.132 8.984ZM130.18 11.72C129.412 11.72 128.692 11.912 128.02 12.296C127.364 12.68 126.836 13.208 126.436 13.88C126.052 14.536 125.86 15.264 125.86 16.064C125.86 16.864 126.052 17.608 126.436 18.296C126.836 18.968 127.364 19.504 128.02 19.904C128.692 20.288 129.412 20.48 130.18 20.48C130.932 20.48 131.628 20.288 132.268 19.904C132.924 19.504 133.436 18.968 133.804 18.296C134.188 17.624 134.38 16.88 134.38 16.064C134.38 15.264 134.188 14.536 133.804 13.88C133.436 13.208 132.924 12.68 132.268 12.296C131.628 11.912 130.932 11.72 130.18 11.72ZM156.396 9.176V11.312L148.644 20.384H156.516V23H144.492V20.888L152.244 11.792H144.732L144.756 9.176H156.396ZM175.175 9.176V11.792H167.759V14.744H174.431V17.36H167.759V20.408H175.391V23H164.663V9.176H175.175Z" fill="white"/>
<circle cx="185" cy="19" r="4" fill="#B3D300"/>
</svg>
