<svg width="37" height="37" viewBox="0 0 37 37" fill="none" xmlns="http://www.w3.org/2000/svg">
<path d="M14.2777 3.5H22.7221C25.4787 3.5 26.857 3.5 27.9412 4.16648C28.1283 4.28147 28.3066 4.40999 28.4749 4.55104C29.4502 5.36843 29.8866 6.67591 30.7591 9.29075L30.8128 9.45187C31.291 10.8848 31.5301 11.6012 31.2775 12.1429C31.1977 12.3139 31.0866 12.4683 30.9496 12.598C30.5157 13.0091 29.7604 13.0091 28.2499 13.0091L27.6106 17.375H9.38897L8.74976 13.0091C7.23924 13.0091 6.48399 13.009 6.05009 12.598C5.91315 12.4683 5.80191 12.3139 5.7222 12.1429C5.46963 11.6012 5.7087 10.8848 6.18684 9.45187L6.24059 9.29084C7.11315 6.67591 7.54944 5.36845 8.52482 4.55104C8.6931 4.40999 8.87148 4.28147 9.05853 4.16648C10.1426 3.5 11.521 3.5 14.2777 3.5Z" fill="black"/>
<path d="M26.5128 24.875H10.4874L9.71875 19.625H27.2816L26.5128 24.875Z" fill="black"/>
<path d="M20.0642 33.5H16.9352C14.4623 33.5 13.2258 33.5 12.3808 32.7698C11.5359 32.0396 11.3568 30.816 10.9986 28.3691L10.8164 27.125H26.183L26.0009 28.3691C25.6427 30.816 25.4635 32.0396 24.6187 32.7698C23.7737 33.5 22.5373 33.5 20.0642 33.5Z" fill="black"/>
</svg>
