<svg id="eYrWC8LF1Kp1" xmlns="http://www.w3.org/2000/svg" xmlns:xlink="http://www.w3.org/1999/xlink" viewBox="0 0 300 300" shape-rendering="geometricPrecision" text-rendering="geometricPrecision" project-id="e78f4e5d7da74cb29420ef8584e43c75" export-id="18b066cd79584b2abad48e2eef576ee8" cached="false"><rect width="136.329588" height="134.082397" rx="14" ry="14" transform="matrix(1 0 0 1.432962 67.228466 13.85753)" fill="#fff" stroke-width="0"/><path d="M226.779026,150q-.749063,0,.749064,50.749064h59.925094Q231.273408,198.127341,226.779026,150Z" transform="translate(-24.105078 5.243446)" fill="#fff" stroke="rgba(63,87,135,0.01)" stroke-width="0.6"/><path d="M150,240.449438q39.325843,2.247192,39.325843,1.498128t0-23.97004h-39.325843v22.471912Z" transform="matrix(1 0 0 1.595573 14.232211-180.053572)" fill="#fff" stroke="rgba(63,87,135,0)" stroke-width="0.6"/><path d="M36.27736,6.88406h38.25176c-.12121-8.33469-.05788-12.50204.18998-12.50204c2.99625,32.08489,23.22097,49.00125,60.67416,50.74906h-59.79006c-.01183.79499-13.12044-.00216-39.32583-2.39145L36.27736,6.88406Z" transform="matrix(-1 0 0 1 145.453392 160.861426)" fill="#fff" stroke="rgba(63,87,135,0)" stroke-width="0.6"/></svg>
